<?xml version="1.0" encoding="UTF-8"?>
<svg version="1.1" xmlns="http://www.w3.org/2000/svg" width="698" height="273">
<path d="M0 0 C230.34 0 460.68 0 698 0 C698 90.09 698 180.18 698 273 C467.66 273 237.32 273 0 273 C0 182.91 0 92.82 0 0 Z " fill="#030721" transform="translate(0,0)"/>
<path d="M0 0 C15.18 0 30.36 0 46 0 C47.32 3.96 48.64 7.92 50 12 C51.49046524 15.72651274 51.49046524 15.72651274 53 19.4453125 C55.26349032 25.22782292 57.08201199 31.17431817 59 37.078125 C60.85235522 42.72201982 62.84765942 48.25395596 65.09375 53.75292969 C71.73800749 70.22753797 75.23673191 87.7049807 79 105 C79.33 105 79.66 105 80 105 C80.14695312 104.195625 80.29390625 103.39125 80.4453125 102.5625 C82.04750679 94.16479201 83.94561728 85.86134224 86 77.5625 C86.37342529 76.03592773 86.37342529 76.03592773 86.75439453 74.47851562 C87.00044434 73.49689453 87.24649414 72.51527344 87.5 71.50390625 C87.7165625 70.63580322 87.933125 69.7677002 88.15625 68.87329102 C89.03394274 65.88441201 90.09428924 63.01653805 91.20593262 60.10865784 C92.51752463 56.62570558 93.69883147 53.09958448 94.890625 49.57421875 C95.43771035 47.96439771 95.98491513 46.35461724 96.53222656 44.74487305 C96.81328247 43.91708344 97.09433838 43.08929382 97.38391113 42.23641968 C105.39586956 18.6570397 105.39586956 18.6570397 109.25 8.1875 C109.52489258 7.43750732 109.79978516 6.68751465 110.08300781 5.91479492 C111.8675395 1.1324605 111.8675395 1.1324605 113 0 C127.85 0 142.7 0 158 0 C158 47.52 158 95.04 158 144 C148.43 144 138.86 144 129 144 C127.15357977 142.15357977 127.87347969 139.54519458 127.86447144 137.08795166 C127.86750778 135.81259552 127.86750778 135.81259552 127.87060547 134.51147461 C127.86797699 133.17455315 127.86797699 133.17455315 127.86529541 131.81062317 C127.86086839 128.84117729 127.86382156 125.87179033 127.8671875 122.90234375 C127.86651381 120.8345997 127.86554324 118.76685572 127.86428833 116.69911194 C127.8628095 112.34684502 127.86496855 107.99459854 127.86962891 103.64233398 C127.87527313 98.1050471 127.87208249 92.56780926 127.86605644 87.03052425 C127.86241007 82.74841455 127.86360887 78.46631609 127.86618423 74.18420601 C127.86684508 72.14598141 127.86605502 70.10775575 127.86370468 68.06953239 C127.85316142 56.33548361 128.08014966 44.70176829 129 33 C128.34 33 127.68 33 127 33 C126.896875 34.093125 126.79375 35.18625 126.6875 36.3125 C124.23219939 55.76245672 116.38896141 76.32233949 109.39038086 94.62280273 C107.50725854 99.55363169 105.84417675 104.51170543 104.3125 109.5625 C102.79771299 114.55121464 101.12538329 119.39620292 99.11328125 124.20703125 C96.51821356 130.71746423 94.30977769 137.38563663 92 144 C83.75 144 75.5 144 67 144 C62.49171271 132.72928177 62.49171271 132.72928177 60.6875 127.625 C60.27113281 126.449375 59.85476562 125.27375 59.42578125 124.0625 C58.35690787 121.02214905 57.29338626 117.97993769 56.23046875 114.9375 C55.92343018 114.05884277 55.6163916 113.18018555 55.30004883 112.27490234 C54.69848797 110.55166626 54.09800578 108.82805312 53.4987793 107.10400391 C52.00067792 102.80540351 50.46159025 98.52792851 48.85302734 94.26953125 C43.04736148 78.8232033 37.4150614 63.42081188 33.58421326 47.35491943 C32.90968505 44.63594725 32.17608112 41.93627408 31.43530273 39.23461914 C31.1662059 38.251996 30.89710907 37.26937286 30.61985779 36.25697327 C30.41530472 35.51217209 30.21075165 34.76737091 30 34 C30.00092179 34.56083503 30.00184359 35.12167006 30.00279331 35.69950008 C30.02484973 49.32756093 30.04134837 62.95561866 30.05181217 76.5836935 C30.05704172 83.17404785 30.06414067 89.76438937 30.07543945 96.35473633 C30.08626578 102.70892018 30.09227629 109.06309165 30.09487724 115.41728401 C30.09673195 117.84749611 30.10035343 120.27770749 30.10573006 122.70791435 C30.11293711 126.09882981 30.11399108 129.48969341 30.11352539 132.88061523 C30.11712067 133.89625046 30.12071594 134.91188568 30.12442017 135.95829773 C30.1230455 136.87681519 30.12167084 137.79533264 30.12025452 138.74168396 C30.12117631 139.54456565 30.1220981 140.34744734 30.12304783 141.17465878 C30 143 30 143 29 144 C26.9394469 144.09993532 24.8754741 144.13080906 22.8125 144.1328125 C21.55695313 144.13410156 20.30140625 144.13539063 19.0078125 144.13671875 C18.35071289 144.13462402 17.69361328 144.1325293 17.01660156 144.13037109 C15.00838665 144.12502234 13.00039541 144.13031691 10.9921875 144.13671875 C9.73664062 144.13542969 8.48109375 144.13414062 7.1875 144.1328125 C6.02605469 144.13168457 4.86460938 144.13055664 3.66796875 144.12939453 C1 144 1 144 0 143 C-0.09648248 141.15238732 -0.12187318 139.3010419 -0.12025452 137.45091248 C-0.12162918 136.24631378 -0.12300385 135.04171509 -0.12442017 133.8006134 C-0.12088056 132.45358252 -0.11724575 131.10655188 -0.11352539 129.75952148 C-0.11324352 128.35052492 -0.11340125 126.94152821 -0.1139679 125.53253174 C-0.11425589 121.6959237 -0.10835894 117.85934666 -0.10139394 114.02274585 C-0.09516063 110.01753059 -0.09455662 106.0123147 -0.09336853 102.00709534 C-0.09025515 94.41747996 -0.08204167 86.82787892 -0.07201904 79.23826987 C-0.06085812 70.59996076 -0.05534751 61.96165099 -0.05032361 53.32333648 C-0.03985906 35.5488812 -0.02151349 17.77444558 0 0 Z " fill="#FBFBFB" transform="translate(46,53)"/>
<path d="M0 0 C9.9 0 19.8 0 30 0 C32.33367434 8.52998206 34.48685904 17.00698055 36.28515625 25.66796875 C36.95704721 28.79978837 37.70677833 31.89698259 38.5 35 C40.01098427 40.94216096 41.30900833 46.91859483 42.56445312 52.91943359 C43.06655034 55.31790469 43.57223064 57.71560825 44.078125 60.11328125 C45.05431274 64.74172072 46.02775477 69.37073084 47 74 C49.31319654 68.99460861 50.77684789 64.26614807 51.875 58.875 C52.21864791 57.26532458 52.56375805 55.6559608 52.91015625 54.046875 C53.08820801 53.21478516 53.26625977 52.38269531 53.44970703 51.52539062 C54.35305111 47.37978675 55.32784718 43.25194154 56.3125 39.125 C56.51367432 38.28155029 56.71484863 37.43810059 56.92211914 36.5690918 C59.8547969 24.35649586 62.93973647 12.18104894 66 0 C75.24 0 84.48 0 94 0 C97.38441592 14.05834304 100.75228693 28.12054295 104.09378052 42.18914795 C104.48490506 43.83498717 104.87655465 45.48070172 105.26876831 47.12628174 C107.63581141 57.06039655 109.91407764 67.00230634 112 77 C112.10546143 76.45698242 112.21092285 75.91396484 112.31958008 75.35449219 C115.9151359 56.91434371 115.9151359 56.91434371 118.24194336 48.03100586 C119.02215532 44.91141438 119.7028336 41.78377621 120.36328125 38.63671875 C121.88814957 31.46706344 123.50119469 24.32067922 125.16210938 17.18139648 C125.63498174 15.14450378 126.10261075 13.10644478 126.5703125 11.06835938 C126.87207734 9.76815521 127.17414832 8.46802204 127.4765625 7.16796875 C127.74549316 6.00547607 128.01442383 4.8429834 128.29150391 3.64526367 C129 1 129 1 130 0 C132.21855264 -0.08783542 134.43988496 -0.10694609 136.66015625 -0.09765625 C137.65685585 -0.09553383 137.65685585 -0.09553383 138.6736908 -0.09336853 C140.80333899 -0.08775518 142.93288339 -0.07520054 145.0625 -0.0625 C146.50325369 -0.05748671 147.94400903 -0.05292351 149.38476562 -0.04882812 C152.92321102 -0.03778145 156.46159539 -0.02050792 160 0 C158.86807405 6.88178755 157.41828556 13.47898659 155.3125 20.125 C152.5141421 29.17732364 149.93833265 38.28049746 147.44848633 47.42236328 C146.23275786 51.83395438 144.9952095 56.17847678 143.35546875 60.453125 C142.30607385 63.19909205 141.52947545 65.63200798 141 68.5 C140.26561243 72.04552687 139.17991548 75.28208592 137.84765625 78.65625 C136.39040521 82.68551555 135.30205815 86.82156469 134.16015625 90.94921875 C132.55608788 96.66692125 130.75946965 102.32869456 129 108 C124.90661348 108.04939115 120.81334202 108.08571501 116.71972656 108.10986328 C115.32679219 108.11992877 113.93387898 108.13358234 112.54101562 108.15087891 C110.5404564 108.1751022 108.53974385 108.18540814 106.5390625 108.1953125 C105.33459473 108.20578613 104.13012695 108.21625977 102.88916016 108.22705078 C100 108 100 108 98 106 C97.17425728 103.23256516 96.4381623 100.48934357 95.75 97.6875 C95.31191381 95.96172606 94.87173027 94.23648348 94.4296875 92.51171875 C94.08309082 91.15892822 94.08309082 91.15892822 93.72949219 89.77880859 C92.518221 85.16478963 91.19764404 80.58310581 89.875 76 C89.6176709 75.10321533 89.3603418 74.20643066 89.09521484 73.2824707 C88.10127158 69.81916937 87.1042936 66.35693584 86.09375 62.8984375 C83.57319383 54.04909354 81.83937625 45.01014255 80 36 C79.77860352 36.96711914 79.55720703 37.93423828 79.32910156 38.93066406 C78.49258127 42.57755385 77.64825209 46.22260111 76.80175781 49.8671875 C76.43900509 51.43376561 76.07826833 53.00081215 75.71972656 54.56835938 C73.81361513 62.89561714 71.79517844 71.04829023 68.97314453 79.12255859 C67.18545586 84.40848401 65.77700521 89.80488498 64.3125 95.1875 C63.70747772 97.41098859 63.09957005 99.6336948 62.48828125 101.85546875 C62.22571533 102.82121826 61.96314941 103.78696777 61.69262695 104.78198242 C61 107 61 107 60 108 C57.85441173 108.08775605 55.70595579 108.10695219 53.55859375 108.09765625 C52.25341797 108.09443359 50.94824219 108.09121094 49.60351562 108.08789062 C48.2148431 108.07953401 46.82617123 108.07106905 45.4375 108.0625 C44.04492344 108.05748666 42.65234519 108.05292347 41.25976562 108.04882812 C37.8398013 108.03699434 34.41992156 108.0205088 31 108 C26.52020013 94.64620166 22.45165844 81.20516163 18.609375 67.65625 C14.86111787 54.44899161 11.03362428 41.26307884 6.97265625 28.1484375 C6.65167969 27.10945313 6.33070313 26.07046875 6 25 C5.79101074 24.32356445 5.58202148 23.64712891 5.36669922 22.95019531 C4.67484026 20.69806831 3.99286405 18.44312354 3.3125 16.1875 C3.09770996 15.49342041 2.88291992 14.79934082 2.66162109 14.08422852 C2.46004395 13.41061279 2.2584668 12.73699707 2.05078125 12.04296875 C1.87200439 11.45539795 1.69322754 10.86782715 1.5090332 10.26245117 C0.75007345 6.88917538 0.42886271 3.43090167 0 0 Z " fill="#FBFBFC" transform="translate(382,89)"/>
<path d="M0 0 C2.02543194 1.29437369 4.02839382 2.62502842 6 4 C6.60585938 4.41121094 7.21171875 4.82242188 7.8359375 5.24609375 C17.81138329 12.9682028 22.58564803 25.02883814 25 37 C25 43.6 25 50.2 25 57 C0.58 57 -23.84 57 -49 57 C-45.88117079 70.60086256 -45.88117079 70.60086256 -36.84375 80.03515625 C-30.92880312 83.13047803 -24.5599404 83.94548918 -18 83 C-11.49633576 80.82589129 -7.14299163 78.14312 -4 72 C5.35775436 72.40685889 13.92982326 73.60438853 23 76 C20.65296279 85.70108715 14.51263452 93.40327798 6.14453125 98.91015625 C-7.51077921 105.84974026 -24.90534877 108.83630508 -39.9375 104.6796875 C-40.618125 104.45539063 -41.29875 104.23109375 -42 104 C-42.78375 103.75507813 -43.5675 103.51015625 -44.375 103.2578125 C-56.6776937 98.91342379 -65.96630159 90.84156061 -71.90332031 79.23388672 C-76.90524397 68.71440559 -78.14071661 58.55024895 -78 47 C-77.99871094 45.99195313 -77.99742187 44.98390625 -77.99609375 43.9453125 C-77.30153405 28.84424023 -70.45903542 15.97261095 -59.6875 5.625 C-43.89142842 -7.68844202 -18.11463801 -9.46844903 0 0 Z " fill="#FCFCFC" transform="translate(299,93)"/>
<path d="M0 0 C10.23 0 20.46 0 31 0 C35.60213841 14.26014719 35.60213841 14.26014719 37.5607605 20.34544373 C39.5205651 26.43273273 41.49376347 32.51511624 43.4921875 38.58984375 C47.87164116 51.95507241 51.85637248 65.28809705 55 79 C55.73351192 76.85564812 56.46144518 74.70938824 57.1875 72.5625 C57.59355469 71.36753906 57.99960937 70.17257813 58.41796875 68.94140625 C59.57511318 65.42409156 60.61986702 61.88037187 61.64451599 58.32237244 C64.6433845 47.93046158 68.0834229 37.71779241 71.625 27.5 C72.48858958 24.99656054 73.35110774 22.49275391 74.21347046 19.9888916 C74.74344679 18.45136667 75.27431423 16.91414845 75.80630493 15.37731934 C77.57512657 10.26286203 79.28838378 5.13484866 81 0 C90.9 0 100.8 0 111 0 C109.87409461 7.88133774 109.87409461 7.88133774 108.765625 10.98046875 C108.52392578 11.66302734 108.28222656 12.34558594 108.03320312 13.04882812 C107.64551758 14.1074707 107.64551758 14.1074707 107.25 15.1875 C106.8468457 16.30995117 106.8468457 16.30995117 106.43554688 17.45507812 C104.54641799 22.6579981 102.46168982 27.75605709 100.28125 32.84375 C98.45586975 37.34041841 96.87553506 41.91604266 95.31835938 46.51171875 C93.9551651 50.48226208 92.45090609 54.3571275 90.8125 58.22265625 C86.96067743 67.3635271 83.51362819 76.66291151 80 85.9375 C79.29445364 87.79629336 78.58872558 89.65501776 77.8828125 91.51367188 C77.53861771 92.41999359 77.19442291 93.32631531 76.83979797 94.26010132 C75.52031438 97.73413062 74.20082512 101.20815764 72.88070679 104.6819458 C72.32368081 106.14805963 71.76701411 107.61431006 71.21084595 109.08074951 C70.53438447 110.86314651 69.85518878 112.64450514 69.17578125 114.42578125 C68.81653564 115.36977783 68.45729004 116.31377441 68.0871582 117.28637695 C62.44666084 131.36545357 56.12825938 140.06747433 42.3671875 146.6875 C31.46983999 150.93518998 18.90981765 149.63660588 8 146 C8.75247093 141.87708637 9.83768486 137.90037082 11 133.875 C11.5259375 132.04582031 11.5259375 132.04582031 12.0625 130.1796875 C12.6730082 128.10904719 13.31733818 126.04798545 14 124 C14.804375 124.165 15.60875 124.33 16.4375 124.5 C23.10700679 125.43607113 29.30754154 126.20157648 35 122 C37.93789976 116.8333487 39.78556995 110.83751284 38.5687561 104.89337158 C37.85356915 102.64169828 37.04175997 100.45587424 36.17578125 98.2578125 C35.87310837 97.44939911 35.57043549 96.64098572 35.2585907 95.80807495 C34.29280088 93.2405512 33.30310538 90.6830373 32.3125 88.125 C31.66573631 86.41596221 31.02053965 84.70633053 30.37695312 82.99609375 C27.93506645 76.53110835 25.45526316 70.083006 22.85546875 63.6796875 C20.90596297 58.85738918 19.19357809 53.95812578 17.45898438 49.05517578 C15.785615 44.36789655 14.02610535 39.71371217 12.265625 35.05859375 C11.93921021 34.19424713 11.61279541 33.32990051 11.27648926 32.43936157 C9.9233289 28.85795032 8.56887855 25.27704392 7.20947266 21.69799805 C6.20388819 19.04866061 5.20314381 16.3975361 4.203125 13.74609375 C3.7422348 12.53825478 3.7422348 12.53825478 3.27203369 11.30601501 C2.9879364 10.55075027 2.70383911 9.79548553 2.41113281 9.01733398 C2.16196106 8.36006821 1.91278931 7.70280243 1.65606689 7.02561951 C0.91469862 4.73663029 0.47186612 2.35933061 0 0 Z " fill="#FBFBFC" transform="translate(546,89)"/>
<path d="M0 0 C9.57 0 19.14 0 29 0 C29 47.52 29 95.04 29 144 C19.43 144 9.86 144 0 144 C0 96.48 0 48.96 0 0 Z " fill="#FDFDFD" transform="translate(340,53)"/>
<path d="M0 0 C5.44135402 2.80087837 9.69388425 8.67540274 11.59765625 14.38671875 C11.59765625 16.69671875 11.59765625 19.00671875 11.59765625 21.38671875 C-2.92234375 21.38671875 -17.44234375 21.38671875 -32.40234375 21.38671875 C-32.40234375 14.38232593 -31.327877 10.39319561 -26.42578125 5.35546875 C-18.8003691 -1.41035149 -10.00539044 -2.55422162 0 0 Z " fill="#070B23" transform="translate(283.40234375,110.61328125)"/>
</svg>
